<svg version="1.1" id="Layer_1" xmlns="http://www.w3.org/2000/svg" xmlns:xlink="http://www.w3.org/1999/xlink" x="0px" y="0px"
	 width="100%" viewBox="0 0 1214 847" enable-background="new 0 0 1214 847" xml:space="preserve">
<path fill="#010101" opacity="1.000000" stroke="none" 
	d="
M1097.220459,201.095535 
	C1097.441162,196.394699 1097.661743,191.693878 1098.275024,186.316803 
	C1098.304932,184.454849 1098.334839,182.592911 1098.586548,179.965759 
	C1098.696045,178.642059 1098.805542,177.318344 1099.291016,175.708099 
	C1099.245361,175.133453 1099.199829,174.558823 1099.300415,173.279297 
	C1099.484497,171.849976 1099.668579,170.420639 1100.222656,168.710098 
	C1100.184326,168.136246 1100.146118,167.562378 1100.276367,166.345779 
	C1100.437012,165.701431 1100.597656,165.057083 1101.140991,164.142807 
	C1101.137939,163.423706 1101.134888,162.704590 1101.317871,161.288467 
	C1101.853027,159.190643 1102.388184,157.092804 1103.318481,154.713867 
	C1103.271973,154.136459 1103.225464,153.559036 1103.307373,152.341171 
	C1103.418579,151.697815 1103.529785,151.054459 1104.056519,150.176041 
	C1104.068115,149.447540 1104.079590,148.719040 1104.310425,147.288361 
	C1106.672852,139.842316 1109.034912,132.396210 1111.397583,124.950256 
	C1119.958740,97.968513 1134.326904,74.339333 1154.218750,54.409035 
	C1164.266602,44.341770 1175.992432,35.949062 1187.579468,26.808594 
	C1188.164917,26.264431 1188.750488,25.720270 1189.732422,25.163752 
	C1189.732422,25.163752 1189.968262,24.844891 1190.603882,24.869242 
	C1191.249023,24.346889 1191.894165,23.824537 1192.860474,23.264111 
	C1192.860474,23.264111 1192.992798,22.969147 1193.664062,22.935368 
	C1194.866943,22.004335 1196.069946,21.073303 1197.801147,20.034803 
	C1198.197510,19.682396 1198.593872,19.329988 1199.698853,18.942165 
	C1202.470215,17.067541 1205.241577,15.192915 1208.012939,13.318291 
	C1207.776245,12.662163 1207.539551,12.006036 1207.302856,11.349908 
	C1204.876587,11.618887 1202.450439,11.887866 1199.299683,12.051151 
	C1197.874756,12.333511 1196.449951,12.615871 1194.555664,12.657202 
	C1193.718628,12.826605 1192.881592,12.996009 1191.289062,13.074636 
	C1190.552856,13.226330 1189.816772,13.378025 1188.406372,13.322368 
	C1187.281494,13.586621 1186.156738,13.850875 1184.215332,14.043595 
	C1183.172485,14.334895 1182.129639,14.626194 1180.577515,14.720624 
	C1180.065186,14.864360 1179.552856,15.008097 1178.226929,15.076167 
	C1177.180664,15.346220 1176.134399,15.616274 1174.578979,15.674928 
	C1174.063965,15.825081 1173.548828,15.975233 1172.194946,16.041166 
	C1170.827637,16.294262 1169.460205,16.547359 1167.484131,16.591854 
	C1166.676880,16.806112 1165.869751,17.020372 1164.370728,17.170969 
	C1163.944214,17.332863 1163.517822,17.494755 1162.477661,17.440317 
	C1161.665649,17.678030 1160.853760,17.915741 1159.267944,18.140579 
	C1158.541626,18.385876 1157.815186,18.631172 1156.571655,18.677877 
	C1156.064331,18.847952 1155.557129,19.018026 1154.362061,19.133347 
	C1153.937500,19.292637 1153.512939,19.451927 1152.475098,19.400799 
	C1151.660278,19.637745 1150.845581,19.874693 1149.255493,20.088221 
	C1148.533203,20.351433 1147.810913,20.614647 1146.564697,20.694256 
	C1146.062622,20.870802 1145.560547,21.047348 1144.357300,21.204048 
	C1143.935669,21.393410 1143.514038,21.582771 1142.571167,21.561533 
	C1142.062378,21.763910 1141.553711,21.966288 1140.273560,22.119110 
	C1139.546265,22.350456 1138.818848,22.581804 1137.568726,22.625751 
	C1137.062500,22.813509 1136.556152,23.001265 1135.344116,23.165806 
	C1134.926880,23.368805 1134.509644,23.571804 1133.429932,23.640665 
	C1131.968262,24.150177 1130.506470,24.659689 1128.276367,25.163570 
	C1127.547974,25.383177 1126.819458,25.602781 1125.572144,25.610350 
	C1125.062256,25.793320 1124.552490,25.976290 1123.354370,26.123280 
	C1122.932007,26.287596 1122.509766,26.451912 1121.419434,26.474476 
	C1119.966064,27.058674 1118.512573,27.642874 1116.355469,28.227903 
	C1115.934204,28.419559 1115.512817,28.611216 1114.515137,28.627716 
	C1113.771973,28.871975 1113.028931,29.116234 1111.560791,29.411240 
	C1108.731323,30.420992 1105.901978,31.430744 1102.329468,32.414753 
	C1097.903076,34.006672 1093.476685,35.598587 1088.305786,37.191029 
	C1086.899902,37.660782 1085.493896,38.130531 1083.362305,38.506767 
	C1079.022827,40.195179 1074.683350,41.883591 1069.723145,43.633259 
	C1069.174561,43.915009 1068.626099,44.196758 1067.462280,44.376431 
	C1066.747192,44.756180 1066.032227,45.135933 1064.708130,45.603394 
	C1064.161865,45.872299 1063.615723,46.141201 1062.452148,46.363461 
	C1061.743774,46.753887 1061.035400,47.144314 1059.715576,47.611618 
	C1059.167480,47.883717 1058.619385,48.155811 1057.456787,48.357178 
	C1056.774414,48.786396 1056.092163,49.215614 1054.783813,49.698158 
	C1053.867432,50.189693 1052.951050,50.681232 1051.399170,51.123436 
	C1050.695801,51.572891 1049.992432,52.022346 1048.681763,52.570385 
	C1048.145752,52.861549 1047.609741,53.152714 1046.455933,53.357178 
	C1045.765381,53.777374 1045.074829,54.197575 1043.753418,54.706097 
	C1043.198364,54.997013 1042.643311,55.287930 1041.409546,55.535328 
	C1039.375977,56.529743 1037.342285,57.524155 1034.629150,58.664078 
	C1029.439331,61.217369 1024.249390,63.770657 1018.357239,66.347710 
	C1015.688416,67.758675 1013.019653,69.169640 1009.846252,70.642937 
	C1009.579895,70.843895 1009.313538,71.044861 1008.375671,71.230843 
	C1007.052856,72.035805 1005.730042,72.840767 1003.719910,73.754951 
	C998.498596,76.604248 993.277344,79.453552 987.396301,82.326721 
	C986.135742,83.149963 984.875244,83.973198 982.941528,84.909561 
	C980.990417,86.019539 979.039368,87.129524 976.395264,88.253868 
	C974.499878,89.451584 972.604553,90.649307 970.100342,91.934425 
	C969.416748,92.376289 968.733154,92.818146 967.430237,93.254692 
	C966.813721,93.762383 966.197205,94.270065 964.995117,94.931076 
	C964.351685,95.405869 963.708252,95.880661 962.473389,96.394684 
	C961.895020,96.884232 961.316650,97.373772 960.315430,97.899422 
	C960.315430,97.899422 960.044434,98.226067 959.422974,98.212234 
	C958.806702,98.732872 958.190430,99.253510 957.207153,99.813019 
	C957.207153,99.813019 957.028809,100.136169 956.403381,100.161652 
	C955.810242,100.708710 955.217102,101.255775 954.240173,101.842751 
	C954.240173,101.842751 954.035095,102.169617 953.417358,102.185242 
	C952.834106,102.732048 952.250793,103.278854 951.012512,103.995110 
	C947.697083,106.053276 944.381653,108.111435 940.439453,110.190964 
	C939.838623,110.730499 939.237732,111.270027 938.249207,111.844582 
	C938.249207,111.844582 938.035767,112.170074 937.387085,112.192184 
	C936.433777,113.043716 935.480530,113.895248 933.892700,114.949059 
	C930.606750,117.326584 927.320740,119.704117 923.366821,122.146294 
	C922.132874,123.038841 920.898926,123.931389 919.262268,124.872375 
	C919.262268,124.872375 919.043945,125.214264 918.415955,125.268105 
	C917.540466,126.142609 916.664917,127.017120 915.252319,128.032913 
	C914.845276,128.404877 914.438293,128.776840 913.411011,129.164398 
	C912.828796,129.717606 912.246582,130.270813 911.144592,130.957611 
	C910.768982,131.330750 910.393372,131.703903 909.379272,132.165207 
	C908.484436,133.057129 907.589600,133.949051 906.053528,135.035126 
	C877.716919,156.551682 852.341248,181.322586 827.782837,206.925491 
	C804.833557,230.850754 781.924133,254.753311 756.085266,275.675385 
	C727.421326,298.884949 697.330261,320.044250 665.426575,338.490143 
	C628.106567,360.067566 588.542786,376.695374 547.294067,389.169495 
	C498.031647,404.066986 447.621948,413.156403 396.437622,418.199371 
	C364.949036,421.301819 333.484192,424.644989 301.557159,427.590118 
	C300.709625,427.779114 299.862122,427.968109 298.135468,428.159729 
	C293.757294,428.435059 289.379150,428.710388 284.649780,428.712250 
	C284.102112,428.831177 283.554474,428.950104 282.151489,429.056427 
	C278.770905,429.326172 275.390289,429.595886 271.397186,429.551727 
	C269.603271,429.754486 267.809326,429.957275 265.159637,430.156921 
	C263.193085,430.367981 261.226562,430.579010 258.528259,430.511200 
	C257.023773,430.726593 255.519257,430.941956 253.210617,431.151672 
	C251.875000,431.239502 250.539398,431.327332 248.446136,431.077667 
	C246.462921,431.456146 244.479691,431.834625 242.496460,432.213104 
	C242.574738,432.871124 242.653015,433.529114 242.731293,434.187134 
	C244.898682,434.297577 247.066086,434.408020 250.131760,434.644928 
	C272.420990,434.432678 294.710236,434.220459 317.694946,434.301575 
	C320.460968,434.178741 323.227020,434.055939 326.930511,433.971619 
	C336.576294,433.855957 346.221802,433.669159 355.867859,433.636322 
	C414.909668,433.435211 473.951538,433.269012 533.587708,433.444916 
	C535.396790,433.341095 537.205872,433.237274 539.948792,433.192657 
	C596.393555,433.202332 652.838501,433.148956 709.283142,433.236115 
	C799.192993,433.374908 889.102661,433.607239 979.710754,434.203888 
	C985.135681,434.085358 990.560547,433.966858 996.923645,433.891541 
	C1029.227417,433.825958 1061.531250,433.760376 1094.624268,433.700775 
	C1094.827759,425.126007 1095.031128,416.551270 1095.310181,407.049316 
	C1095.465454,363.694885 1095.620605,320.340485 1096.186279,276.289795 
	C1096.083984,267.530518 1095.981812,258.771271 1095.913330,249.073837 
	C1095.908447,241.713928 1095.903564,234.354004 1096.240967,226.301285 
	C1096.225464,223.193848 1096.209839,220.086426 1096.327759,216.180481 
	C1096.485107,212.782806 1096.642456,209.385117 1097.212158,205.535004 
	C1097.180786,204.352448 1097.149414,203.169876 1097.220459,201.095535 
M548.608032,695.475708 
	C556.582642,695.945984 564.635620,695.870483 572.515259,697.002075 
	C588.048950,699.232849 599.590149,707.248474 604.511780,722.667908 
	C607.437073,731.832825 606.881226,741.419556 605.633728,750.898560 
	C603.736328,765.315247 596.711487,775.776978 583.299438,782.316223 
	C574.388733,786.660767 565.097961,787.732605 555.653503,787.725037 
	C509.511353,787.688049 463.369507,787.317505 417.227417,787.089600 
	C406.627350,787.037231 396.026794,787.081848 385.726074,787.081848 
	C385.726074,803.662354 385.726074,818.744080 385.726074,834.132568 
	C388.001312,834.234985 389.643219,834.374695 391.285004,834.373352 
	C433.271057,834.338013 475.257904,834.425171 517.242859,834.182678 
	C538.386169,834.060547 559.607178,834.335327 580.646667,832.627441 
	C606.405823,830.536316 628.502441,819.347778 642.906799,797.467041 
	C665.089600,763.770691 665.392212,727.481506 648.859741,691.776978 
	C635.777039,663.522827 611.453369,649.757263 580.461121,648.364441 
	C564.822998,647.661621 549.151428,647.612793 533.493164,647.465576 
	C510.506653,647.249390 487.516235,647.371460 464.531799,647.043579 
	C446.579895,646.787598 433.623627,637.776978 429.297668,622.230774 
	C425.218994,607.573242 426.397064,593.108215 433.798187,579.607056 
	C438.384613,571.240356 445.290436,565.146973 454.910950,563.497498 
	C462.761993,562.151367 470.795563,561.235168 478.749207,561.227966 
	C521.565979,561.189331 564.383057,561.502319 607.200073,561.674500 
	C617.308105,561.715149 627.416443,561.680481 638.294006,561.680481 
	C638.294006,546.452454 638.144592,532.340393 638.387573,518.235046 
	C638.457947,514.148560 637.045532,513.072815 633.210999,513.151611 
	C618.719543,513.449829 604.223206,513.605103 589.728333,513.631042 
	C547.913025,513.705811 506.096802,513.565308 464.282837,513.822083 
	C456.176483,513.871826 447.957489,514.710693 439.998383,516.256348 
	C407.560455,522.555847 387.041809,542.208923 378.401123,573.823914 
	C373.181763,592.920715 373.579285,612.343323 378.105743,631.674927 
	C387.566467,672.079651 416.617767,695.754333 458.186096,696.039368 
	C488.001617,696.243835 517.822327,695.693787 548.608032,695.475708 
M910.875854,815.650940 
	C913.184082,818.708923 915.908325,821.541016 917.716064,824.870728 
	C921.767273,832.333008 927.158325,835.074219 936.078918,834.544067 
	C952.512756,833.567322 969.050232,834.372009 985.544128,834.317993 
	C987.458069,834.311768 989.369690,833.569092 991.882935,833.041870 
	C990.790222,831.407104 990.384338,830.702087 989.886475,830.069336 
	C975.580750,811.887695 961.218994,793.749878 946.964172,775.528503 
	C929.011230,752.580200 911.158020,729.553955 893.234375,706.582703 
	C885.243652,696.341675 877.198853,686.142639 869.147766,675.948975 
	C867.559814,673.938416 866.790283,672.177979 868.753540,669.780640 
	C874.972107,662.187134 881.053467,654.479675 887.107544,646.753357 
	C900.759094,629.331177 914.406555,611.905518 927.974426,594.418274 
	C946.239441,570.876831 964.453796,547.295898 982.615173,523.674438 
	C984.764465,520.878845 986.443359,517.721558 988.770569,514.053772 
	C986.408020,513.547363 985.169983,513.056824 983.929199,513.049805 
	C965.269226,512.943726 946.608582,512.845154 927.949280,512.948914 
	C926.435486,512.957275 924.448730,514.079468 923.492065,515.312683 
	C906.251099,537.537903 889.041748,559.789246 872.018555,582.181641 
	C855.396423,604.046509 838.914429,626.019409 822.558472,648.083923 
	C819.424011,652.312256 816.221863,654.723267 810.602539,653.976318 
	C805.686890,653.323059 800.623718,653.759827 795.625610,653.750793 
	C786.855408,653.734924 778.085144,653.746338 768.906433,653.746338 
	C768.906433,606.576294 768.906433,560.356750 768.906433,513.749146 
	C751.200439,513.749146 733.804749,513.749146 716.650879,513.749146 
	C716.650879,620.658081 716.650879,727.224609 716.650879,833.786743 
	C734.273010,833.786743 751.323792,833.786743 768.963074,833.786743 
	C768.963074,820.198364 768.956238,807.072144 768.964478,793.945862 
	C768.983154,764.120483 769.067444,734.294983 768.967468,704.470032 
	C768.953125,700.183777 770.259705,698.744934 774.710938,698.862061 
	C787.700928,699.203552 800.707214,699.233154 813.699890,698.993958 
	C818.240112,698.910400 821.326599,700.688843 823.921936,703.998474 
	C836.040222,719.451965 848.197266,734.875366 860.254150,750.376587 
	C877.012634,771.922363 893.694275,793.527893 910.875854,815.650940 
M1042.051270,811.499939 
	C1042.051270,818.934326 1042.051270,826.368652 1042.051270,834.046631 
	C1044.318604,834.180542 1045.786011,834.346802 1047.252930,834.341492 
	C1060.581299,834.293335 1073.909790,834.207886 1087.238159,834.148865 
	C1094.112183,834.118408 1094.143311,834.132568 1094.159424,827.322388 
	C1094.261230,784.504089 1094.401855,741.685791 1094.427124,698.867432 
	C1094.462646,638.721558 1094.410522,578.575684 1094.381836,518.429810 
	C1094.381104,516.982361 1094.214233,515.535034 1094.105469,513.771912 
	C1076.924194,513.771912 1060.152588,513.771912 1042.052490,513.771912 
	C1042.052490,612.714966 1042.052490,711.607483 1042.051270,811.499939 
M273.494537,570.005737 
	C243.448822,540.085693 213.403107,510.165619 183.226181,480.114899 
	C182.013397,481.174713 181.241989,481.773987 180.556168,482.458923 
	C159.122086,503.865570 137.689163,525.273376 116.271156,546.696106 
	C91.198204,571.774658 66.145599,596.873657 41.071484,621.951050 
	C30.354757,632.669128 19.665350,643.415771 8.833986,654.017090 
	C5.763472,657.022400 5.649094,659.313110 8.984322,662.169556 
	C12.773122,665.414551 16.323088,668.953308 19.832813,672.506714 
	C48.499886,701.530579 77.110901,730.609802 105.786423,759.625305 
	C120.188332,774.197998 134.663345,788.698608 149.153137,803.184082 
	C160.430710,814.458252 171.782257,825.658447 182.680725,836.474548 
	C242.406555,777.233459 302.056763,718.067322 362.063354,658.547791 
	C332.377533,628.869324 303.187347,599.686401 273.494537,570.005737 
z"/>
<path fill="#FFFFFF" opacity="1.000000" stroke="none" 
	d="
M941.066223,110.169586 
	C944.381653,108.111435 947.697083,106.053276 951.677856,103.964096 
	C952.907104,103.345253 953.471069,102.757423 954.035095,102.169601 
	C954.035095,102.169617 954.240173,101.842751 954.774475,101.880615 
	C955.882141,101.324371 956.455505,100.730278 957.028809,100.136177 
	C957.028809,100.136169 957.207153,99.813019 957.729492,99.870193 
	C958.849426,99.360283 959.446960,98.793190 960.044434,98.226089 
	C960.044434,98.226067 960.315430,97.899422 960.847534,97.937004 
	C961.941345,97.434875 962.503052,96.895157 963.064758,96.355453 
	C963.708252,95.880661 964.351685,95.405869 965.623535,94.920914 
	C966.851135,94.360504 967.450378,93.810257 968.049561,93.260010 
	C968.733154,92.818146 969.416748,92.376289 970.770630,91.937881 
	C973.323303,90.707405 975.205811,89.473465 977.088257,88.239517 
	C979.039368,87.129524 980.990417,86.019539 983.631958,84.920105 
	C985.566895,84.054718 986.811462,83.178772 988.056030,82.302841 
	C993.277344,79.453552 998.498596,76.604248 1004.425171,73.811729 
	C1006.435974,72.994286 1007.741577,72.120056 1009.047180,71.245827 
	C1009.313538,71.044861 1009.579895,70.843895 1010.480835,70.732460 
	C1013.763428,69.322632 1016.411499,67.823280 1019.059509,66.323944 
	C1024.249390,63.770657 1029.439331,61.217369 1035.335205,58.723907 
	C1038.056885,57.715427 1040.072510,56.647118 1042.088257,55.578827 
	C1042.643311,55.287930 1043.198364,54.997013 1044.397705,54.779118 
	C1045.719238,54.382702 1046.396484,53.913261 1047.073730,53.443848 
	C1047.609741,53.152714 1048.145752,52.861549 1049.331543,52.664734 
	C1050.665771,52.230324 1051.350220,51.701561 1052.034668,51.172783 
	C1052.951050,50.681232 1053.867432,50.189693 1055.426270,49.787903 
	C1056.736206,49.394394 1057.403809,48.911144 1058.071289,48.427902 
	C1058.619385,48.155811 1059.167480,47.883717 1060.351562,47.708549 
	C1061.681396,47.340359 1062.375488,46.875233 1063.069458,46.410103 
	C1063.615723,46.141201 1064.161865,45.872299 1065.338379,45.701729 
	C1066.671631,45.359539 1067.374634,44.919018 1068.077515,44.478500 
	C1068.626099,44.196758 1069.174561,43.915009 1070.433838,43.731781 
	C1075.459106,42.086964 1079.773560,40.343620 1084.088013,38.600281 
	C1085.493896,38.130531 1086.899902,37.660782 1088.906250,37.424133 
	C1094.028564,35.918331 1098.550537,34.179428 1103.072510,32.440514 
	C1105.901978,31.430744 1108.731323,30.420992 1112.208008,29.570780 
	C1113.600708,29.421165 1114.346069,29.112011 1115.091553,28.802864 
	C1115.512817,28.611216 1115.934204,28.419559 1116.907349,28.447624 
	C1119.001953,27.983644 1120.544678,27.299942 1122.087402,26.616234 
	C1122.509766,26.451912 1122.932007,26.287596 1123.815918,26.344681 
	C1124.881958,26.318188 1125.486572,26.070290 1126.091064,25.822392 
	C1126.819458,25.602781 1127.547974,25.383177 1128.852051,25.389141 
	C1130.982666,25.001417 1132.537476,24.388124 1134.092407,23.774818 
	C1134.509644,23.571804 1134.926880,23.368805 1135.815430,23.380009 
	C1136.888306,23.333864 1137.489868,23.073519 1138.091553,22.813162 
	C1138.818848,22.581804 1139.546265,22.350456 1140.776855,22.352379 
	C1141.884155,22.314478 1142.488281,22.043304 1143.092407,21.772131 
	C1143.514038,21.582771 1143.935669,21.393410 1144.820068,21.417633 
	C1145.884644,21.380102 1146.486694,21.128984 1147.088623,20.877863 
	C1147.810913,20.614647 1148.533203,20.351433 1149.814697,20.327295 
	C1151.278687,20.247982 1152.183472,19.929596 1153.088379,19.611214 
	C1153.512939,19.451927 1153.937500,19.292637 1154.817993,19.365341 
	C1155.878906,19.357048 1156.483887,19.116758 1157.088867,18.876469 
	C1157.815186,18.631172 1158.541626,18.385876 1159.822510,18.374260 
	C1161.281738,18.290844 1162.186523,17.973745 1163.091309,17.656647 
	C1163.517822,17.494755 1163.944214,17.332863 1164.874023,17.427040 
	C1166.282593,17.388893 1167.187744,17.094673 1168.092896,16.800453 
	C1169.460205,16.547359 1170.827637,16.294262 1172.729004,16.287697 
	C1173.871338,16.318268 1174.479736,16.102308 1175.088135,15.886337 
	C1176.134399,15.616274 1177.180664,15.346220 1178.745117,15.317320 
	C1179.871094,15.344809 1180.479004,15.131145 1181.086792,14.917487 
	C1182.129639,14.626194 1183.172485,14.334895 1184.824219,14.323011 
	C1186.648926,14.244850 1187.864746,13.887273 1189.080566,13.529707 
	C1189.816772,13.378025 1190.552856,13.226330 1191.860107,13.359943 
	C1193.295776,13.396238 1194.160400,13.147227 1195.025024,12.898224 
	C1196.449951,12.615871 1197.874756,12.333511 1199.642822,12.453264 
	C1199.654053,14.896115 1199.322144,16.936852 1198.990234,18.977585 
	C1198.593872,19.329988 1198.197510,19.682396 1197.175293,20.043663 
	C1195.363770,21.024729 1194.178345,21.996933 1192.992798,22.969143 
	C1192.992798,22.969147 1192.860474,23.264111 1192.350830,23.189531 
	C1191.216919,23.691599 1190.592651,24.268246 1189.968262,24.844891 
	C1189.968262,24.844891 1189.732422,25.163752 1189.198486,25.109827 
	C1188.096191,25.637005 1187.527832,26.218107 1186.959473,26.799198 
	C1175.992432,35.949062 1164.266602,44.341770 1154.218750,54.409035 
	C1134.326904,74.339333 1119.958740,97.968513 1111.397583,124.950256 
	C1109.034912,132.396210 1106.672852,139.842316 1103.938354,147.871979 
	C1103.591187,149.107422 1103.616089,149.759262 1103.640869,150.411102 
	C1103.529785,151.054459 1103.418579,151.697815 1103.021484,152.778778 
	C1102.798096,153.809265 1102.860718,154.402115 1102.923340,154.994980 
	C1102.388184,157.092804 1101.853027,159.190643 1100.986816,161.881561 
	C1100.689941,163.120697 1100.724121,163.766724 1100.758301,164.412750 
	C1100.597656,165.057083 1100.437012,165.701431 1099.977051,166.797577 
	C1099.735962,167.830017 1099.794312,168.410675 1099.852539,168.991302 
	C1099.668579,170.420639 1099.484497,171.849976 1099.004395,173.751678 
	C1098.777344,174.814240 1098.846191,175.404434 1098.915039,175.994629 
	C1098.805542,177.318344 1098.696045,178.642059 1098.204102,180.537277 
	C1097.842041,183.070206 1097.862305,185.031631 1097.882446,186.993042 
	C1097.661743,191.693878 1097.441162,196.394699 1096.925293,201.751038 
	C1096.686768,203.600189 1096.743286,204.793808 1096.799805,205.987442 
	C1096.642456,209.385117 1096.485107,212.782806 1096.004395,216.879822 
	C1095.753540,220.717468 1095.826172,223.855774 1095.898682,226.994095 
	C1095.903564,234.354004 1095.908447,241.713928 1095.655518,249.872620 
	C1095.523804,259.442963 1095.649902,268.214508 1095.775879,276.986053 
	C1095.620605,320.340485 1095.465454,363.694885 1095.008179,407.827087 
	C1094.415771,416.968201 1094.125488,425.331482 1093.835083,433.694794 
	C1061.531250,433.760376 1029.227417,433.825958 996.129211,433.623322 
	C989.893982,433.503418 984.453247,433.651733 979.012451,433.800018 
	C889.102661,433.607239 799.192993,433.374908 709.283142,433.236115 
	C652.838501,433.148956 596.393555,433.202332 539.208862,432.939697 
	C536.643738,432.821564 534.818542,432.956390 532.993408,433.091187 
	C473.951538,433.269012 414.909668,433.435211 355.867859,433.636322 
	C346.221802,433.669159 336.576294,433.855957 326.137665,433.754089 
	C322.563049,433.693787 319.781250,433.850983 316.999481,434.008240 
	C294.710236,434.220459 272.420990,434.432678 249.608978,434.261414 
	C249.125381,433.056976 249.164581,432.236084 249.203781,431.415192 
	C250.539398,431.327332 251.875000,431.239502 253.837006,431.389832 
	C256.062256,431.348694 257.661133,431.069397 259.260010,430.790070 
	C261.226562,430.579010 263.193085,430.367981 265.848816,430.400970 
	C268.361908,430.385223 270.185822,430.125397 272.009705,429.865601 
	C275.390289,429.595886 278.770905,429.326172 282.738922,429.234070 
	C283.884552,429.269745 284.442780,429.127747 285.000977,428.985748 
	C289.379150,428.710388 293.757294,428.435059 298.782776,428.353455 
	C300.289612,428.324799 301.149139,428.102417 302.008667,427.880035 
	C333.484192,424.644989 364.949036,421.301819 396.437622,418.199371 
	C447.621948,413.156403 498.031647,404.066986 547.294067,389.169495 
	C588.542786,376.695374 628.106567,360.067566 665.426575,338.490143 
	C697.330261,320.044250 727.421326,298.884949 756.085266,275.675385 
	C781.924133,254.753311 804.833557,230.850754 827.782837,206.925491 
	C852.341248,181.322586 877.716919,156.551682 906.729309,134.972809 
	C908.276001,133.966034 909.146912,133.021561 910.017822,132.077072 
	C910.393372,131.703903 910.768982,131.330750 911.743958,130.944061 
	C912.905945,130.336594 913.468628,129.742706 914.031250,129.148819 
	C914.438293,128.776840 914.845276,128.404877 915.862915,127.999374 
	C917.330322,127.048637 918.187134,126.131439 919.043945,125.214249 
	C919.043945,125.214264 919.262268,124.872375 919.826294,124.911118 
	C921.605164,123.993797 922.819946,123.037727 924.034729,122.081650 
	C927.320740,119.704117 930.606750,117.326584 934.567139,114.915756 
	C936.172974,113.978325 937.104370,113.074196 938.035767,112.170074 
	C938.035767,112.170074 938.249207,111.844582 938.783081,111.883698 
	C939.900085,111.338409 940.483154,110.753990 941.066223,110.169586 
z"/>
<path fill="#FFFFFF" opacity="1.000000" stroke="none" 
	d="
M548.124390,695.478027 
	C517.822327,695.693787 488.001617,696.243835 458.186096,696.039368 
	C416.617767,695.754333 387.566467,672.079651 378.105743,631.674927 
	C373.579285,612.343323 373.181763,592.920715 378.401123,573.823914 
	C387.041809,542.208923 407.560455,522.555847 439.998383,516.256348 
	C447.957489,514.710693 456.176483,513.871826 464.282837,513.822083 
	C506.096802,513.565308 547.913025,513.705811 589.728333,513.631042 
	C604.223206,513.605103 618.719543,513.449829 633.210999,513.151611 
	C637.045532,513.072815 638.457947,514.148560 638.387573,518.235046 
	C638.144592,532.340393 638.294006,546.452454 638.294006,561.680481 
	C627.416443,561.680481 617.308105,561.715149 607.200073,561.674500 
	C564.383057,561.502319 521.565979,561.189331 478.749207,561.227966 
	C470.795563,561.235168 462.761993,562.151367 454.910950,563.497498 
	C445.290436,565.146973 438.384613,571.240356 433.798187,579.607056 
	C426.397064,593.108215 425.218994,607.573242 429.297668,622.230774 
	C433.623627,637.776978 446.579895,646.787598 464.531799,647.043579 
	C487.516235,647.371460 510.506653,647.249390 533.493164,647.465576 
	C549.151428,647.612793 564.822998,647.661621 580.461121,648.364441 
	C611.453369,649.757263 635.777039,663.522827 648.859741,691.776978 
	C665.392212,727.481506 665.089600,763.770691 642.906799,797.467041 
	C628.502441,819.347778 606.405823,830.536316 580.646667,832.627441 
	C559.607178,834.335327 538.386169,834.060547 517.242859,834.182678 
	C475.257904,834.425171 433.271057,834.338013 391.285004,834.373352 
	C389.643219,834.374695 388.001312,834.234985 385.726074,834.132568 
	C385.726074,818.744080 385.726074,803.662354 385.726074,787.081848 
	C396.026794,787.081848 406.627350,787.037231 417.227417,787.089600 
	C463.369507,787.317505 509.511353,787.688049 555.653503,787.725037 
	C565.097961,787.732605 574.388733,786.660767 583.299438,782.316223 
	C596.711487,775.776978 603.736328,765.315247 605.633728,750.898560 
	C606.881226,741.419556 607.437073,731.832825 604.511780,722.667908 
	C599.590149,707.248474 588.048950,699.232849 572.515259,697.002075 
	C564.635620,695.870483 556.582642,695.945984 548.124390,695.478027 
z"/>
<path fill="#FFFFFF" opacity="1.000000" stroke="none" 
	d="
M910.642334,815.379395 
	C893.694275,793.527893 877.012634,771.922363 860.254150,750.376587 
	C848.197266,734.875366 836.040222,719.451965 823.921936,703.998474 
	C821.326599,700.688843 818.240112,698.910400 813.699890,698.993958 
	C800.707214,699.233154 787.700928,699.203552 774.710938,698.862061 
	C770.259705,698.744934 768.953125,700.183777 768.967468,704.470032 
	C769.067444,734.294983 768.983154,764.120483 768.964478,793.945862 
	C768.956238,807.072144 768.963074,820.198364 768.963074,833.786743 
	C751.323792,833.786743 734.273010,833.786743 716.650879,833.786743 
	C716.650879,727.224609 716.650879,620.658081 716.650879,513.749146 
	C733.804749,513.749146 751.200439,513.749146 768.906433,513.749146 
	C768.906433,560.356750 768.906433,606.576294 768.906433,653.746338 
	C778.085144,653.746338 786.855408,653.734924 795.625610,653.750793 
	C800.623718,653.759827 805.686890,653.323059 810.602539,653.976318 
	C816.221863,654.723267 819.424011,652.312256 822.558472,648.083923 
	C838.914429,626.019409 855.396423,604.046509 872.018555,582.181641 
	C889.041748,559.789246 906.251099,537.537903 923.492065,515.312683 
	C924.448730,514.079468 926.435486,512.957275 927.949280,512.948914 
	C946.608582,512.845154 965.269226,512.943726 983.929199,513.049805 
	C985.169983,513.056824 986.408020,513.547363 988.770569,514.053772 
	C986.443359,517.721558 984.764465,520.878845 982.615173,523.674438 
	C964.453796,547.295898 946.239441,570.876831 927.974426,594.418274 
	C914.406555,611.905518 900.759094,629.331177 887.107544,646.753357 
	C881.053467,654.479675 874.972107,662.187134 868.753540,669.780640 
	C866.790283,672.177979 867.559814,673.938416 869.147766,675.948975 
	C877.198853,686.142639 885.243652,696.341675 893.234375,706.582703 
	C911.158020,729.553955 929.011230,752.580200 946.964172,775.528503 
	C961.218994,793.749878 975.580750,811.887695 989.886475,830.069336 
	C990.384338,830.702087 990.790222,831.407104 991.882935,833.041870 
	C989.369690,833.569092 987.458069,834.311768 985.544128,834.317993 
	C969.050232,834.372009 952.512756,833.567322 936.078918,834.544067 
	C927.158325,835.074219 921.767273,832.333008 917.716064,824.870728 
	C915.908325,821.541016 913.184082,818.708923 910.642334,815.379395 
z"/>
<path fill="#FFFFFF" opacity="1.000000" stroke="none" 
	d="
M1042.051880,811.000000 
	C1042.052490,711.607483 1042.052490,612.714966 1042.052490,513.771912 
	C1060.152588,513.771912 1076.924194,513.771912 1094.105469,513.771912 
	C1094.214233,515.535034 1094.381104,516.982361 1094.381836,518.429810 
	C1094.410522,578.575684 1094.462646,638.721558 1094.427124,698.867432 
	C1094.401855,741.685791 1094.261230,784.504089 1094.159424,827.322388 
	C1094.143311,834.132568 1094.112183,834.118408 1087.238159,834.148865 
	C1073.909790,834.207886 1060.581299,834.293335 1047.252930,834.341492 
	C1045.786011,834.346802 1044.318604,834.180542 1042.051270,834.046631 
	C1042.051270,826.368652 1042.051270,818.934326 1042.051880,811.000000 
z"/>
<path fill="#FFFFFF" opacity="1.000000" stroke="none" 
	d="
M273.745850,570.254578 
	C303.187347,599.686401 332.377533,628.869324 362.063354,658.547791 
	C302.056763,718.067322 242.406555,777.233459 182.680725,836.474548 
	C171.782257,825.658447 160.430710,814.458252 149.153137,803.184082 
	C134.663345,788.698608 120.188332,774.197998 105.786423,759.625305 
	C77.110901,730.609802 48.499886,701.530579 19.832813,672.506714 
	C16.323088,668.953308 12.773122,665.414551 8.984322,662.169556 
	C5.649094,659.313110 5.763472,657.022400 8.833986,654.017090 
	C19.665350,643.415771 30.354757,632.669128 41.071484,621.951050 
	C66.145599,596.873657 91.198204,571.774658 116.271156,546.696106 
	C137.689163,525.273376 159.122086,503.865570 180.556168,482.458923 
	C181.241989,481.773987 182.013397,481.174713 183.226181,480.114899 
	C213.403107,510.165619 243.448822,540.085693 273.745850,570.254578 
M272.340790,580.158936 
	C242.703033,550.319580 213.065277,520.480286 183.665115,490.880157 
	C169.394638,504.989655 155.850357,518.277588 142.419846,531.679443 
	C101.265442,572.746033 60.168137,613.869873 18.987482,654.910095 
	C16.914268,656.976196 16.441565,658.190918 18.790390,660.509644 
	C29.817270,671.395142 40.626888,682.500366 51.549740,693.491760 
	C88.190140,730.362122 124.837906,767.225098 161.502304,804.071594 
	C168.735306,811.340515 176.054993,818.523071 182.309265,824.728149 
	C238.487915,769.366150 294.422302,714.244873 350.884125,658.603821 
	C324.414001,632.163696 298.628693,606.407654 272.340790,580.158936 
z"/>
<path fill="#FFFFFF" opacity="1.000000" stroke="none" 
	d="
M1095.981079,276.637939 
	C1095.649902,268.214508 1095.523804,259.442963 1095.638672,250.341705 
	C1095.981812,258.771271 1096.083984,267.530518 1095.981079,276.637939 
z"/>
<path fill="#FFFFFF" opacity="1.000000" stroke="none" 
	d="
M1094.229736,433.697784 
	C1094.125488,425.331482 1094.415771,416.968201 1094.970459,408.290710 
	C1095.031128,416.551270 1094.827759,425.126007 1094.229736,433.697784 
z"/>
<path fill="#FFFFFF" opacity="1.000000" stroke="none" 
	d="
M1199.344482,18.959877 
	C1199.322144,16.936852 1199.654053,14.896115 1200.005127,12.506111 
	C1202.450439,11.887866 1204.876587,11.618887 1207.302856,11.349908 
	C1207.539551,12.006036 1207.776245,12.662163 1208.012939,13.318291 
	C1205.241577,15.192915 1202.470215,17.067541 1199.344482,18.959877 
z"/>
<path fill="#FFFFFF" opacity="1.000000" stroke="none" 
	d="
M979.361572,434.001953 
	C984.453247,433.651733 989.893982,433.503418 995.660156,433.601746 
	C990.560547,433.966858 985.135681,434.085358 979.361572,434.001953 
z"/>
<path fill="#FFFFFF" opacity="1.000000" stroke="none" 
	d="
M248.824951,431.246429 
	C249.164581,432.236084 249.125381,433.056976 249.159836,434.198181 
	C247.066086,434.408020 244.898682,434.297577 242.731293,434.187134 
	C242.653015,433.529114 242.574738,432.871124 242.496460,432.213104 
	C244.479691,431.834625 246.462921,431.456146 248.824951,431.246429 
z"/>
<path fill="#FFFFFF" opacity="1.000000" stroke="none" 
	d="
M1102.700928,32.427643 
	C1098.550537,34.179428 1094.028564,35.918331 1089.278442,37.423866 
	C1093.476685,35.598587 1097.903076,34.006672 1102.700928,32.427643 
z"/>
<path fill="#FFFFFF" opacity="1.000000" stroke="none" 
	d="
M1083.725098,38.553524 
	C1079.773560,40.343620 1075.459106,42.086964 1070.744263,43.701157 
	C1074.683350,41.883591 1079.022827,40.195179 1083.725098,38.553524 
z"/>
<path fill="#FFFFFF" opacity="1.000000" stroke="none" 
	d="
M1096.069824,226.647690 
	C1095.826172,223.855774 1095.753540,220.717468 1095.937744,217.279068 
	C1096.209839,220.086426 1096.225464,223.193848 1096.069824,226.647690 
z"/>
<path fill="#FFFFFF" opacity="1.000000" stroke="none" 
	d="
M317.347229,434.154907 
	C319.781250,433.850983 322.563049,433.693787 325.668945,433.734863 
	C323.227020,434.055939 320.460968,434.178741 317.347229,434.154907 
z"/>
<path fill="#FFFFFF" opacity="1.000000" stroke="none" 
	d="
M1018.708374,66.335823 
	C1016.411499,67.823280 1013.763428,69.322632 1010.733154,70.701294 
	C1013.019653,69.169640 1015.688416,67.758675 1018.708374,66.335823 
z"/>
<path fill="#FFFFFF" opacity="1.000000" stroke="none" 
	d="
M976.741760,88.246696 
	C975.205811,89.473465 973.323303,90.707405 971.075012,91.894180 
	C972.604553,90.649307 974.499878,89.451584 976.741760,88.246696 
z"/>
<path fill="#FFFFFF" opacity="1.000000" stroke="none" 
	d="
M1041.748901,55.557068 
	C1040.072510,56.647118 1038.056885,57.715427 1035.674927,58.651154 
	C1037.342285,57.524155 1039.375977,56.529743 1041.748901,55.557068 
z"/>
<path fill="#FFFFFF" opacity="1.000000" stroke="none" 
	d="
M1098.078735,186.654922 
	C1097.862305,185.031631 1097.842041,183.070206 1098.093262,180.919876 
	C1098.334839,182.592911 1098.304932,184.454849 1098.078735,186.654922 
z"/>
<path fill="#FFFFFF" opacity="1.000000" stroke="none" 
	d="
M271.703430,429.708679 
	C270.185822,430.125397 268.361908,430.385223 266.276733,430.402527 
	C267.809326,429.957275 269.603271,429.754486 271.703430,429.708679 
z"/>
<path fill="#FFFFFF" opacity="1.000000" stroke="none" 
	d="
M533.290527,433.268066 
	C534.818542,432.956390 536.643738,432.821564 538.741943,432.910095 
	C537.205872,433.237274 535.396790,433.341095 533.290527,433.268066 
z"/>
<path fill="#FFFFFF" opacity="1.000000" stroke="none" 
	d="
M258.894135,430.650635 
	C257.661133,431.069397 256.062256,431.348694 254.239075,431.392700 
	C255.519257,430.941956 257.023773,430.726593 258.894135,430.650635 
z"/>
<path fill="#FFFFFF" opacity="1.000000" stroke="none" 
	d="
M1121.753418,26.545357 
	C1120.544678,27.299942 1119.001953,27.983644 1117.259277,28.447208 
	C1118.512573,27.642874 1119.966064,27.058674 1121.753418,26.545357 
z"/>
<path fill="#FFFFFF" opacity="1.000000" stroke="none" 
	d="
M1133.761230,23.707748 
	C1132.537476,24.388124 1130.982666,25.001417 1129.236328,25.391956 
	C1130.506470,24.659689 1131.968262,24.150177 1133.761230,23.707748 
z"/>
<path fill="#FFFFFF" opacity="1.000000" stroke="none" 
	d="
M1008.711426,71.238335 
	C1007.741577,72.120056 1006.435974,72.994286 1004.768799,73.757118 
	C1005.730042,72.840767 1007.052856,72.035805 1008.711426,71.238335 
z"/>
<path fill="#FFFFFF" opacity="1.000000" stroke="none" 
	d="
M987.726196,82.314774 
	C986.811462,83.178772 985.566895,84.054718 983.968506,84.863541 
	C984.875244,83.973198 986.135742,83.149963 987.726196,82.314774 
z"/>
<path fill="#FFFFFF" opacity="1.000000" stroke="none" 
	d="
M923.700806,122.113976 
	C922.819946,123.037727 921.605164,123.993797 920.027710,124.886902 
	C920.898926,123.931389 922.132874,123.038841 923.700806,122.113976 
z"/>
<path fill="#FFFFFF" opacity="1.000000" stroke="none" 
	d="
M1097.005981,205.761230 
	C1096.743286,204.793808 1096.686768,203.600189 1096.874268,202.196930 
	C1097.149414,203.169876 1097.180786,204.352448 1097.005981,205.761230 
z"/>
<path fill="#FFFFFF" opacity="1.000000" stroke="none" 
	d="
M1188.743408,13.426031 
	C1187.864746,13.887273 1186.648926,14.244850 1185.232422,14.358778 
	C1186.156738,13.850875 1187.281494,13.586621 1188.743408,13.426031 
z"/>
<path fill="#FFFFFF" opacity="1.000000" stroke="none" 
	d="
M1193.328369,22.952251 
	C1194.178345,21.996933 1195.363770,21.024729 1196.911133,20.097397 
	C1196.069946,21.073303 1194.866943,22.004335 1193.328369,22.952251 
z"/>
<path fill="#FFFFFF" opacity="1.000000" stroke="none" 
	d="
M909.698547,132.121155 
	C909.146912,133.021561 908.276001,133.966034 907.049927,134.875732 
	C907.589600,133.949051 908.484436,133.057129 909.698547,132.121155 
z"/>
<path fill="#FFFFFF" opacity="1.000000" stroke="none" 
	d="
M918.729980,125.241173 
	C918.187134,126.131439 917.330322,127.048637 916.131470,127.928726 
	C916.664917,127.017120 917.540466,126.142609 918.729980,125.241173 
z"/>
<path fill="#FFFFFF" opacity="1.000000" stroke="none" 
	d="
M937.711426,112.181122 
	C937.104370,113.074196 936.172974,113.978325 934.884399,114.814621 
	C935.480530,113.895248 936.433777,113.043716 937.711426,112.181122 
z"/>
<path fill="#FFFFFF" opacity="1.000000" stroke="none" 
	d="
M1194.790283,12.777708 
	C1194.160400,13.147227 1193.295776,13.396238 1192.237793,13.405331 
	C1192.881592,12.996009 1193.718628,12.826605 1194.790283,12.777708 
z"/>
<path fill="#FFFFFF" opacity="1.000000" stroke="none" 
	d="
M1152.781738,19.506004 
	C1152.183472,19.929596 1151.278687,20.247982 1150.202271,20.339005 
	C1150.845581,19.874693 1151.660278,19.637745 1152.781738,19.506004 
z"/>
<path fill="#FFFFFF" opacity="1.000000" stroke="none" 
	d="
M301.782898,427.735077 
	C301.149139,428.102417 300.289612,428.324799 299.222351,428.352142 
	C299.862122,427.968109 300.709625,427.779114 301.782898,427.735077 
z"/>
<path fill="#FFFFFF" opacity="1.000000" stroke="none" 
	d="
M1162.784424,17.548481 
	C1162.186523,17.973745 1161.281738,18.290844 1160.209351,18.380699 
	C1160.853760,17.915741 1161.665649,17.678030 1162.784424,17.548481 
z"/>
<path fill="#FFFFFF" opacity="1.000000" stroke="none" 
	d="
M1167.788574,16.696152 
	C1167.187744,17.094673 1166.282593,17.388893 1165.219971,17.458874 
	C1165.869751,17.020372 1166.676880,16.806112 1167.788574,16.696152 
z"/>
<path fill="#FFFFFF" opacity="1.000000" stroke="none" 
	d="
M1174.833496,15.780638 
	C1174.479736,16.102308 1173.871338,16.318268 1173.148438,16.329807 
	C1173.548828,15.975233 1174.063965,15.825081 1174.833496,15.780638 
z"/>
<path fill="#FFFFFF" opacity="1.000000" stroke="none" 
	d="
M1180.832153,14.819053 
	C1180.479004,15.131145 1179.871094,15.344809 1179.151855,15.355152 
	C1179.552856,15.008097 1180.065186,14.864360 1180.832153,14.819053 
z"/>
<path fill="#FFFFFF" opacity="1.000000" stroke="none" 
	d="
M1137.830078,22.719461 
	C1137.489868,23.073519 1136.888306,23.333864 1136.168213,23.391617 
	C1136.556152,23.001265 1137.062500,22.813509 1137.830078,22.719461 
z"/>
<path fill="#FFFFFF" opacity="1.000000" stroke="none" 
	d="
M1190.286133,24.857067 
	C1190.592651,24.268246 1191.216919,23.691599 1192.190308,23.208569 
	C1191.894165,23.824537 1191.249023,24.346889 1190.286133,24.857067 
z"/>
<path fill="#FFFFFF" opacity="1.000000" stroke="none" 
	d="
M1125.831543,25.716372 
	C1125.486572,26.070290 1124.881958,26.318188 1124.160034,26.362671 
	C1124.552490,25.976290 1125.062256,25.793320 1125.831543,25.716372 
z"/>
<path fill="#FFFFFF" opacity="1.000000" stroke="none" 
	d="
M1187.269531,26.803902 
	C1187.527832,26.218107 1188.096191,25.637005 1189.000244,25.116005 
	C1188.750488,25.720270 1188.164917,26.264431 1187.269531,26.803902 
z"/>
<path fill="#FFFFFF" opacity="1.000000" stroke="none" 
	d="
M1114.803345,28.715286 
	C1114.346069,29.112011 1113.600708,29.421165 1112.570557,29.545406 
	C1113.028931,29.116234 1113.771973,28.871975 1114.803345,28.715286 
z"/>
<path fill="#FFFFFF" opacity="1.000000" stroke="none" 
	d="
M1067.769897,44.427460 
	C1067.374634,44.919018 1066.671631,45.359539 1065.642944,45.657875 
	C1066.032227,45.135933 1066.747192,44.756180 1067.769897,44.427460 
z"/>
<path fill="#FFFFFF" opacity="1.000000" stroke="none" 
	d="
M284.825378,428.848999 
	C284.442780,429.127747 283.884552,429.269745 283.166565,429.240356 
	C283.554474,428.950104 284.102112,428.831177 284.825378,428.848999 
z"/>
<path fill="#FFFFFF" opacity="1.000000" stroke="none" 
	d="
M1142.831787,21.666832 
	C1142.488281,22.043304 1141.884155,22.314478 1141.162476,22.377155 
	C1141.553711,21.966288 1142.062378,21.763910 1142.831787,21.666832 
z"/>
<path fill="#FFFFFF" opacity="1.000000" stroke="none" 
	d="
M1156.830322,18.777172 
	C1156.483887,19.116758 1155.878906,19.357048 1155.161865,19.392719 
	C1155.557129,19.018026 1156.064331,18.847952 1156.830322,18.777172 
z"/>
<path fill="#FFFFFF" opacity="1.000000" stroke="none" 
	d="
M1062.760742,46.386784 
	C1062.375488,46.875233 1061.681396,47.340359 1060.657227,47.670113 
	C1061.035400,47.144314 1061.743774,46.753887 1062.760742,46.386784 
z"/>
<path fill="#FFFFFF" opacity="1.000000" stroke="none" 
	d="
M959.733765,98.219170 
	C959.446960,98.793190 958.849426,99.360283 957.913025,99.850769 
	C958.190430,99.253510 958.806702,98.732872 959.733765,98.219170 
z"/>
<path fill="#FFFFFF" opacity="1.000000" stroke="none" 
	d="
M1057.764038,48.392536 
	C1057.403809,48.911144 1056.736206,49.394394 1055.739258,49.761238 
	C1056.092163,49.215614 1056.774414,48.786396 1057.764038,48.392536 
z"/>
<path fill="#FFFFFF" opacity="1.000000" stroke="none" 
	d="
M1051.716919,51.148117 
	C1051.350220,51.701561 1050.665771,52.230324 1049.635254,52.615448 
	C1049.992432,52.022346 1050.695801,51.572891 1051.716919,51.148117 
z"/>
<path fill="#FFFFFF" opacity="1.000000" stroke="none" 
	d="
M1099.103027,175.851364 
	C1098.846191,175.404434 1098.777344,174.814240 1098.931396,174.104126 
	C1099.199829,174.558823 1099.245361,175.133453 1099.103027,175.851364 
z"/>
<path fill="#FFFFFF" opacity="1.000000" stroke="none" 
	d="
M1100.037598,168.850708 
	C1099.794312,168.410675 1099.735962,167.830017 1099.892822,167.118958 
	C1100.146118,167.562378 1100.184326,168.136246 1100.037598,168.850708 
z"/>
<path fill="#FFFFFF" opacity="1.000000" stroke="none" 
	d="
M1100.949707,164.277771 
	C1100.724121,163.766724 1100.689941,163.120697 1100.893799,162.230072 
	C1101.134888,162.704590 1101.137939,163.423706 1100.949707,164.277771 
z"/>
<path fill="#FFFFFF" opacity="1.000000" stroke="none" 
	d="
M1103.120850,154.854431 
	C1102.860718,154.402115 1102.798096,153.809265 1102.957275,153.098999 
	C1103.225464,153.559036 1103.271973,154.136459 1103.120850,154.854431 
z"/>
<path fill="#FFFFFF" opacity="1.000000" stroke="none" 
	d="
M1103.848633,150.293564 
	C1103.616089,149.759262 1103.591187,149.107422 1103.828735,148.223068 
	C1104.079590,148.719040 1104.068115,149.447540 1103.848633,150.293564 
z"/>
<path fill="#FFFFFF" opacity="1.000000" stroke="none" 
	d="
M1046.764893,53.400501 
	C1046.396484,53.913261 1045.719238,54.382702 1044.713135,54.734955 
	C1045.074829,54.197575 1045.765381,53.777374 1046.764893,53.400501 
z"/>
<path fill="#FFFFFF" opacity="1.000000" stroke="none" 
	d="
M913.721130,129.156616 
	C913.468628,129.742706 912.905945,130.336594 912.003906,130.877258 
	C912.246582,130.270813 912.828796,129.717606 913.721130,129.156616 
z"/>
<path fill="#FFFFFF" opacity="1.000000" stroke="none" 
	d="
M967.739868,93.257355 
	C967.450378,93.810257 966.851135,94.360504 965.916321,94.844254 
	C966.197205,94.270065 966.813721,93.762383 967.739868,93.257355 
z"/>
<path fill="#FFFFFF" opacity="1.000000" stroke="none" 
	d="
M962.769043,96.375061 
	C962.503052,96.895157 961.941345,97.434875 961.058960,97.918953 
	C961.316650,97.373772 961.895020,96.884232 962.769043,96.375061 
z"/>
<path fill="#FFFFFF" opacity="1.000000" stroke="none" 
	d="
M1146.826660,20.786060 
	C1146.486694,21.128984 1145.884644,21.380102 1145.170654,21.427557 
	C1145.560547,21.047348 1146.062622,20.870802 1146.826660,20.786060 
z"/>
<path fill="#FFFFFF" opacity="1.000000" stroke="none" 
	d="
M940.752808,110.180267 
	C940.483154,110.753990 939.900085,111.338409 938.976929,111.866196 
	C939.237732,111.270027 939.838623,110.730499 940.752808,110.180267 
z"/>
<path fill="#FFFFFF" opacity="1.000000" stroke="none" 
	d="
M953.726196,102.177414 
	C953.471069,102.757423 952.907104,103.345253 952.005371,103.879372 
	C952.250793,103.278854 952.834106,102.732048 953.726196,102.177414 
z"/>
<path fill="#FFFFFF" opacity="1.000000" stroke="none" 
	d="
M956.716064,100.148918 
	C956.455505,100.730278 955.882141,101.324371 954.966370,101.860657 
	C955.217102,101.255775 955.810242,100.708710 956.716064,100.148918 
z"/>
<path fill="#010101" opacity="1.000000" stroke="none" 
	d="
M272.592102,580.405273 
	C298.628693,606.407654 324.414001,632.163696 350.884125,658.603821 
	C294.422302,714.244873 238.487915,769.366150 182.309265,824.728149 
	C176.054993,818.523071 168.735306,811.340515 161.502304,804.071594 
	C124.837906,767.225098 88.190140,730.362122 51.549740,693.491760 
	C40.626888,682.500366 29.817270,671.395142 18.790390,660.509644 
	C16.441565,658.190918 16.914268,656.976196 18.987482,654.910095 
	C60.168137,613.869873 101.265442,572.746033 142.419846,531.679443 
	C155.850357,518.277588 169.394638,504.989655 183.665115,490.880157 
	C213.065277,520.480286 242.703033,550.319580 272.592102,580.405273 
z"/>
</svg>