<svg viewBox="0 0 40 40" fill="none" xmlns="http://www.w3.org/2000/svg"><circle cx="20" cy="20" r="18.5" fill="#0B1022"/><g transform="translate(-1,1) scale(0.85)"><path d="M32.437 21.745a.47.47 0 00-.577-.245H11.909c-.364 0-.546.45-.289.714l3.943 4.041a.47.47 0 00.577.245H36.091c.364 0 .546-.451.289-.714l-3.943-4.041z" fill="url(#s1)"/><path d="M15.563 29.268a.47.47 0 01.576-.244h19.952c.364 0 .546.449.289.711l-3.943 4.022a.47.47 0 01-.576.243H11.909c-.364 0-.546-.449-.289-.711l3.943-4.021z" fill="url(#s2)"/><path d="M15.563 14.244A.47.47 0 0116.139 14h19.952c.364 0 .546.449.289.711l-3.943 4.021a.47.47 0 01-.576.244H11.909c-.364 0-.546-.449-.289-.711l3.943-4.021z" fill="url(#s3)"/></g><defs><linearGradient id="s1" x1="28.4" y1="8.49" x2="14.03" y2="35.32" gradientUnits="userSpaceOnUse"><stop stop-color="#00FFA3"/><stop offset="1" stop-color="#DC1FFF"/></linearGradient><linearGradient id="s2" x1="28.4" y1="8.51" x2="14.14" y2="35.27" gradientUnits="userSpaceOnUse"><stop stop-color="#00FFA3"/><stop offset="1" stop-color="#DC1FFF"/></linearGradient><linearGradient id="s3" x1="28.4" y1="8.51" x2="14.14" y2="35.27" gradientUnits="userSpaceOnUse"><stop stop-color="#00FFA3"/><stop offset="1" stop-color="#DC1FFF"/></linearGradient></defs></svg>
