<svg xmlns="http://www.w3.org/2000/svg" width="128" height="128"><defs><linearGradient id="g" x1="0" y1="0" x2="1" y2="1"><stop offset="0%" stop-color="#6366f1"/><stop offset="100%" stop-color="#a855f7"/></linearGradient></defs><rect width="128" height="128" fill="url(#g)" rx="24"/><rect x="4" y="4" width="44" height="44" rx="9" fill="#000"/><svg x="11" y="11" width="30" height="30" viewBox="0 0 24 24"><path fill="#fff" d="M18.244 2.25h3.308l-7.227 8.26 8.502 11.24H16.17l-4.714-6.231-5.401 6.231H2.747l7.73-8.835-8.162-10.665h7.555l4.259 5.63 4.115-5.63zm-1.161 17.52h1.833L7.084 4.126H5.117z"/></svg><g transform="translate(14,14) scale(1)"><path fill-rule="evenodd" clip-rule="evenodd" d="M62.18 0C67.63 0 71.65 3.1 74.48 7.09c2.58 3.64 4.37 8.26 5.64 12.77 4.51 1.26 9.13 3.04 12.77 5.62 3.99 2.83 7.1 6.85 7.1 12.3 0 5.02-2.55 9.07-6.88 12.2 4.33 3.13 6.88 7.18 6.89 12.2 0 5.45-3.1 9.47-7.09 12.3-3.64 2.58-8.26 4.37-12.77 5.64-1.26 4.52-3.04 9.14-5.62 12.78-2.83 3.99-6.85 7.1-12.3 7.1-5.02 0-9.07-2.55-12.2-6.88-3.13 4.33-7.18 6.88-12.2 6.89-5.45 0-9.47-3.1-12.3-7.09-2.58-3.64-4.37-8.26-5.64-12.77-4.51-1.26-9.13-3.05-12.77-5.62C3.12 71.69 0 67.67 0 62.22c0-5.02 2.55-9.07 6.89-12.2C2.56 46.89 0 42.84 0 37.82 0 32.37 3.1 28.35 7.09 25.52c3.64-2.58 8.26-4.37 12.77-5.64 1.26-4.52 3.04-9.14 5.62-12.78C28.31 3.11 32.33 0.01 37.78 0.01c5.02 0 9.07 2.55 12.2 6.88C53.11 2.56 57.16 0 62.18 0zm0 5.62c-3.27 0-6.32 1.84-9.03 6.76-1.37 2.48-4.95 2.48-6.32 0-2.72-4.92-5.78-6.76-9.04-6.76-3.01 0-5.52 1.63-7.72 4.73-2.23 3.14-3.89 7.5-5.04 12.1-.33 1.25-1.3 2.22-2.54 2.55-4.6 1.21-8.95 2.87-12.1 5.1C7.24 32.3 5.62 34.81 5.62 37.82c0 3.27 1.84 6.32 6.76 9.04 2.48 1.37 2.48 4.95 0 6.32-4.92 2.72-6.76 5.78-6.76 9.04 0 3.01 1.63 5.52 4.73 7.72 3.14 2.23 7.5 3.89 12.1 5.08 1.17.3 2.1 1.18 2.48 2.31l.07.23.23.86c1.19 4.28 2.78 8.29 4.87 11.24 2.2 3.1 4.71 4.72 7.72 4.72 3.27 0 6.32-1.84 9.04-6.77l.13-.22c1.41-2.18 4.64-2.18 6.05 0l.13.22.26.45c2.65 4.58 5.62 6.31 8.78 6.31 3.01 0 5.52-1.63 7.72-4.72 2.23-3.14 3.89-7.5 5.08-12.1.33-1.25 1.3-2.22 2.54-2.55 4.6-1.21 8.95-2.87 12.1-5.1 3.1-2.2 4.72-4.71 4.72-7.72 0-3.27-1.84-6.32-6.77-9.04-2.48-1.37-2.48-4.95 0-6.32l.45-.26c4.58-2.65 6.31-5.62 6.31-8.78 0-3.01-1.63-5.52-4.73-7.72-3.14-2.23-7.5-3.89-12.1-5.04-1.25-.32-2.22-1.3-2.54-2.54-1.21-4.6-2.87-8.95-5.1-12.1-2.2-3.1-4.71-4.72-7.72-4.72z" fill="white"/><path d="M62.67 63.15c.95-1.23 2.71-1.46 3.94-.51 1.23.95 1.46 2.71.51 3.94-3.19 4.15-8.98 6.96-15.15 7.48-6.27.53-13.26-1.27-18.85-6.79-1.1-1.09-1.11-2.87-.02-3.97 1.09-1.1 2.87-1.11 3.97-.02 4.27 4.21 9.57 5.6 14.43 5.19 4.96-.42 9.14-2.67 11.17-5.32z" fill="white"/><path d="M39.66 30.84c1.44 0 2.55.73 3.28 1.48.72.74 1.24 1.67 1.62 2.59.76 1.85 1.17 4.21 1.17 6.67 0 2.46-.4 4.83-1.16 6.68-.38.92-.9 1.85-1.62 2.59-.73.75-1.84 1.48-3.28 1.48-1.44 0-2.55-.72-3.28-1.47-.72-.74-1.24-1.67-1.62-2.59-.76-1.85-1.17-4.21-1.17-6.67 0-2.46.4-4.83 1.16-6.68.38-.92.9-1.85 1.62-2.59.73-.75 1.84-1.48 3.28-1.48z" fill="white"/><path d="M60.33 30.84l.27.01c1.31.08 2.33.76 3.01 1.47.72.74 1.24 1.67 1.62 2.59.76 1.85 1.17 4.21 1.17 6.67 0 2.46-.4 4.83-1.16 6.68-.38.92-.9 1.85-1.62 2.59-.73.75-1.84 1.48-3.28 1.48-1.44 0-2.55-.72-3.28-1.47-.72-.74-1.24-1.67-1.62-2.59-.76-1.85-1.17-4.21-1.17-6.67 0-2.46.4-4.83 1.16-6.68.38-.92.9-1.85 1.62-2.59.73-.75 1.84-1.48 3.28-1.48z" fill="white"/></g></svg>
